<svg width="100" height="100" xmlns="http://www.w3.org/2000/svg">
 <style type="text/css">.st0{fill:#474747;}
	.st1{fill:none;stroke:#474747;stroke-width:1.7963;stroke-linecap:round;stroke-linejoin:round;stroke-miterlimit:10;}</style>

 <g>
  <title>background</title>
  <rect fill="none" id="canvas_background" height="402" width="582" y="-1" x="-1"/>
 </g>
 <g>
  <title>Layer 1</title>
  <g id="svg_1">
   <g id="svg_2">
    <g id="svg_3">
     <g id="svg_4">
      <g id="svg_5">
       <path id="svg_6" d="m75.9,45.4c-0.4,0 -0.8,-0.3 -0.9,-0.7l-4,-17.6c-0.1,-0.5 0.2,-1 0.7,-1.1c0.5,-0.1 1,0.2 1.1,0.7l4,17.6c0.1,0.5 -0.2,1 -0.7,1.1c-0.1,0 -0.2,0 -0.2,0z" class="st0"/>
       <path id="svg_7" d="m66.4,45.4c-0.1,0 -0.2,0 -0.3,0c-0.5,-0.2 -0.7,-0.7 -0.6,-1.1l3.7,-11.4c0.2,-0.5 0.7,-0.7 1.1,-0.6c0.5,0.2 0.7,0.7 0.6,1.1l-3.7,11.4c-0.1,0.3 -0.4,0.6 -0.8,0.6z" class="st0"/>
       <path id="svg_8" d="m71.8,52.9l-1.3,0c-2,0 -4,-0.9 -5.4,-2.5c-1.4,-1.5 -2.2,-3.6 -2.2,-5.6c0,-0.5 0.4,-0.9 0.9,-0.9l14.8,0c0.5,0 0.9,0.4 0.9,0.9c0,2 -0.8,4.1 -2.2,5.6c-1.5,1.6 -3.5,2.5 -5.5,2.5zm-7.1,-7.2c0.4,3 3,5.4 5.8,5.4l1.3,0c2.8,0 5.4,-2.4 5.8,-5.4l-12.9,0z" class="st0"/>
      </g>
     </g>
     <g id="svg_9">
      <g id="svg_10">
       <path id="svg_11" d="m23.7,45.4c-0.1,0 -0.1,0 -0.2,0c-0.5,-0.1 -0.8,-0.6 -0.7,-1.1l4,-17.6c0.1,-0.5 0.6,-0.8 1.1,-0.7c0.5,0.1 0.8,0.6 0.7,1.1l-4,17.6c-0.1,0.4 -0.5,0.7 -0.9,0.7z" class="st0"/>
       <path id="svg_12" d="m33.2,45.4c-0.4,0 -0.7,-0.2 -0.9,-0.6l-3.7,-11.4c-0.2,-0.5 0.1,-1 0.6,-1.1c0.5,-0.2 1,0.1 1.1,0.6l3.7,11.3c0.2,0.5 -0.1,1 -0.6,1.1c-0.1,0.1 -0.1,0.1 -0.2,0.1z" class="st0"/>
       <path id="svg_13" d="m29.1,52.9l-1.3,0c-2,0 -4,-0.9 -5.4,-2.5c-1.4,-1.5 -2.2,-3.6 -2.2,-5.6c0,-0.5 0.4,-0.9 0.9,-0.9l14.8,0c0.5,0 0.9,0.4 0.9,0.9c0,2 -0.8,4.1 -2.2,5.6c-1.6,1.6 -3.5,2.5 -5.5,2.5zm-7.1,-7.2c0.4,3 3,5.4 5.8,5.4l1.3,0c2.8,0 5.4,-2.4 5.8,-5.4l-12.9,0z" class="st0"/>
      </g>
     </g>
     <path id="svg_14" d="m49.2,22.6" class="st1"/>
     <path id="svg_15" d="m55.3,41.5l-3.9,0c-0.5,0 -0.9,-0.4 -0.9,-0.9l0,-15c0,-0.8 0.2,-1.5 0.6,-2.1l-3.9,0c0.4,0.6 0.6,1.3 0.6,2.1l0,15c0,0.5 -0.4,0.9 -0.9,0.9l-4,0c-2.3,0 -4.5,-1.8 -5.2,-4.2l-1.7,-5.6c-0.5,-1.6 -1.9,-2.6 -3.5,-2.6l-8.5,0c-0.5,0 -0.9,-0.4 -0.9,-0.9s0.4,-0.9 0.9,-0.9l8.4,0c2.4,0 4.5,1.6 5.2,3.9l1.7,5.6c0.5,1.7 2,2.9 3.5,2.9l3.1,0l0,-14.1c0,-1.2 -1,-2.1 -2.1,-2.1c-0.5,0 -0.9,-0.4 -0.9,-0.9c0,-0.5 0.4,-0.9 0.9,-0.9l10.5,0c0.5,0 0.9,0.4 0.9,0.9c0,0.5 -0.4,0.9 -0.9,0.9c-1.2,0 -2.1,1 -2.1,2.1l0,14.1l3,0c1.5,0 3,-1.3 3.5,-2.9l1.7,-5.6c0.7,-2.3 2.8,-3.9 5.2,-3.9l9.6,0c0.5,0 0.9,0.4 0.9,0.9s-0.4,0.9 -0.9,0.9l-9.6,0c-1.6,0 -3,1 -3.5,2.6l-1.7,5.6c-0.6,2.5 -2.8,4.2 -5.1,4.2z" class="st0"/>
     <path id="svg_16" d="m51.4,70.8c-0.5,0 -0.9,-0.4 -0.9,-0.9l0,-26c0,-0.5 0.4,-0.9 0.9,-0.9l3.6,0c2.9,0 5.5,-1.9 6.3,-4.7c0,0 0,0 0,0l2.3,-7.1c0.7,-2.3 2.8,-3.9 5.2,-3.9c0.5,0 0.9,0.4 0.9,0.9s-0.4,0.9 -0.9,0.9c-1.6,0 -3,1 -3.5,2.6c0,0 0,0 0,0l-2.3,7.1c-1.1,3.5 -4.3,5.9 -8,5.9l-2.7,0l0,25.1c0,0.6 -0.4,1 -0.9,1z" class="st0"/>
     <path id="svg_17" d="m47,70.8c-0.5,0 -0.9,-0.4 -0.9,-0.9l0,-25.2l-2.8,0c-3.7,0 -6.9,-2.4 -8,-5.9l-2.3,-7.1c0,0 0,0 0,0c-0.5,-1.6 -1.9,-2.6 -3.5,-2.6c-0.5,0 -0.9,-0.4 -0.9,-0.9s0.4,-0.9 0.9,-0.9c2.4,0 4.5,1.5 5.2,3.9l2.3,7.1c0,0 0,0 0,0c0.9,2.8 3.4,4.7 6.3,4.7l3.7,0c0.5,0 0.9,0.4 0.9,0.9l0,26c0,0.5 -0.4,0.9 -0.9,0.9z" class="st0"/>
    </g>
    <path id="svg_18" d="m55.5,74.1l-12.4,0c-0.5,0 -0.9,-0.4 -0.9,-0.9l0,-1c0,-1.8 1.4,-3.2 3.2,-3.2l7.8,0c1.8,0 3.2,1.4 3.2,3.2l0,1c0,0.5 -0.4,0.9 -0.9,0.9zm-11.5,-1.8l10.6,0l0,-0.1c0,-0.8 -0.6,-1.4 -1.4,-1.4l-7.8,0c-0.8,0 -1.4,0.6 -1.4,1.4l0,0.1z" class="st0"/>
    <path id="svg_19" d="m63.1,77.4l-27.6,0c-0.5,0 -0.9,-0.4 -0.9,-0.9l0,-1c0,-1.8 1.4,-3.2 3.2,-3.2l23,0c1.8,0 3.2,1.4 3.2,3.2l0,1c0,0.5 -0.4,0.9 -0.9,0.9zm-26.7,-1.8l25.8,0l0,-0.1c0,-0.8 -0.6,-1.4 -1.4,-1.4l-23,0c-0.8,0 -1.4,0.6 -1.4,1.4l0,0.1z" class="st0"/>
   </g>
   <path id="svg_20" d="m77.9,48.7l-13.4,0c-0.5,0 -0.9,-0.4 -0.9,-0.9c0,-0.5 0.4,-0.9 0.9,-0.9l13.4,0c0.5,0 0.9,0.4 0.9,0.9c0,0.5 -0.4,0.9 -0.9,0.9z" class="st0"/>
   <path id="svg_21" d="m35.1,48.7l-13.4,0c-0.5,0 -0.9,-0.4 -0.9,-0.9c0,-0.5 0.4,-0.9 0.9,-0.9l13.4,0c0.5,0 0.9,0.4 0.9,0.9c0,0.5 -0.4,0.9 -0.9,0.9z" class="st0"/>
  </g>
 </g>
</svg>